# xmcd
#
# Track frame offsets:
#	150
#	14203
#	29396
#	43773
#	57961
#	72525
#	87109
#	103805
#	120502
#	136650
#	150057
#	163461
#	175997
#	190525
#	204481
#
# Disc length: 2936 seconds
#
# Revision: 1
# Processed by: cddbd v1.5.2PL0 Copyright (c) Steve Scherf et al.
# Submitted via: EZCDAudioConverter 7.0.5.1
#
DISCID=ca0b760f
DTITLE=Glen Campbell - Rhinestone Cowboy [40th anniversary reissue]
DYEAR=1975
DGENRE=Country
TTITLE0=Country Boy (You Got Your Feet in L.A.)
TTITLE1=Comeback
TTITLE2=Count on Me
TTITLE3=I Miss You Tonight
TTITLE4=My Girl
TTITLE5=Rhinestone Cowboy
TTITLE6=I'd Build a Bridge
TTITLE7=Pencils for Sale
TTITLE8=Marie
TTITLE9=We're Over
TTITLE10=Record Collectors Dream [b-side]
TTITLE11=Coming Home [Japan-only track]
TTITLE12=Quits [prev. unrel.]
TTITLE13=Country Boy (You Got Your Feet in L.A.) [remix]
TTITLE14=Rhinestone Cowboy [remix]
EXTD=
EXTT0=
EXTT1=
EXTT2=
EXTT3=
EXTT4=
EXTT5=
EXTT6=
EXTT7=
EXTT8=
EXTT9=
EXTT10=
EXTT11=
EXTT12=
EXTT13=
EXTT14=
PLAYORDER=
